<svg xmlns:mydata="http://www.w3.org/2000/svg" mydata:contrastcolor="F1C400" mydata:template="Contrast" mydata:presentation="2.5" mydata:layouttype="undefined" mydata:specialfontid="undefined" mydata:id1="830" mydata:id2="206" mydata:companyname="PIPPO" mydata:companytagline="welcome in my blog" version="1.1" xmlns="http://www.w3.org/2000/svg" xmlns:xlink="http://www.w3.org/1999/xlink" style="height: 377px;" viewBox="0 0 550 470"><g fill="#101820" fill-rule="none" stroke="none" stroke-width="1" stroke-linecap="butt" stroke-linejoin="miter" stroke-miterlimit="10" stroke-dasharray="" stroke-dashoffset="0" font-family="none" font-weight="none" font-size="none" text-anchor="none" style="mix-blend-mode: normal"><g data-paper-data="{&quot;isGlobalGroup&quot;:true,&quot;bounds&quot;:{&quot;x&quot;:65,&quot;y&quot;:192.7427995293154,&quot;width&quot;:420,&quot;height&quot;:84.51440094136927}}"><g data-paper-data="{&quot;isSecondaryText&quot;:true}" fill-rule="nonzero" id="element-id-43359"><path d="M193.58014,256.34486l-1.79129,6.22546l-0.24961,1.29208h-0.02937l-0.29365,-1.29208l-1.79129,-6.22546h-2.15836l-1.79129,6.22546l-0.26429,1.32144h-0.02937l-0.29365,-1.32144l-1.76192,-6.22546h-3.02463l3.56789,11.89298h2.87781l1.46827,-5.12426l0.27897,-1.35081h0.02937l0.24961,1.35081l1.48295,5.12426h2.95122l3.56789,-11.89298z" data-paper-data="{&quot;glyphName&quot;:&quot;W&quot;,&quot;glyphIndex&quot;:0,&quot;firstGlyphOfWord&quot;:true,&quot;word&quot;:1}" id="element-id-69124"></path><path d="M214.13449,265.7271h-7.60563l0.26429,-0.26429v-1.64446l-0.26429,-0.26429h6.90086v-2.52542h-6.90086l0.26429,-0.26429v-1.64446l-0.26429,-0.26429h7.60563v-2.51074h-10.20447v11.89298h10.20447z" data-paper-data="{&quot;glyphName&quot;:&quot;E&quot;,&quot;glyphIndex&quot;:1,&quot;word&quot;:1}" id="element-id-76995"></path><path d="M231.25783,265.7271h-6.90086l0.24961,-0.26429v-9.11795h-2.86312v11.89298h9.51438z" data-paper-data="{&quot;glyphName&quot;:&quot;L&quot;,&quot;glyphIndex&quot;:2,&quot;word&quot;:1}" id="element-id-83524"></path><path d="M247.34743,264.28819c-0.69009,0.98374 -1.98216,1.58573 -3.31829,1.58573c-2.64288,0 -3.65599,-1.46827 -3.65599,-3.52385c0,-2.09962 1.08652,-3.61194 3.67067,-3.61194c1.36549,0 2.55479,0.58731 3.24487,1.62978l1.90875,-1.89407c-1.23335,-1.49763 -2.92186,-2.26113 -5.16831,-2.26113c-4.21393,0 -6.56316,2.59884 -6.56316,6.13736c0,3.55321 2.27582,6.04927 6.54848,6.04927c2.08494,0 3.96433,-0.88096 5.19767,-2.2905z" data-paper-data="{&quot;glyphName&quot;:&quot;C&quot;,&quot;glyphIndex&quot;:3,&quot;word&quot;:1}" id="element-id-36978"></path><path d="M265.60082,262.35008c0,2.09962 -0.96906,3.50916 -3.3917,3.50916c-2.40796,0 -3.40638,-1.40954 -3.40638,-3.50916c0,-2.14367 0.99842,-3.62662 3.40638,-3.62662c2.40796,0 3.3917,1.527 3.3917,3.62662zM268.50799,262.35008c0,-3.50916 -2.15836,-6.15205 -6.31356,-6.15205c-4.12584,0 -6.29887,2.65757 -6.29887,6.15205c0,3.53853 2.17304,6.03459 6.29887,6.03459c4.0671,0 6.31356,-2.49606 6.31356,-6.03459z" data-paper-data="{&quot;glyphName&quot;:&quot;O&quot;,&quot;glyphIndex&quot;:4,&quot;word&quot;:1}" id="element-id-79437"></path><path d="M289.44091,256.34486h-2.3786l-3.75877,6.32824l-0.4258,1.04247h-0.02937l-0.45516,-1.04247l-3.74409,-6.32824h-2.34923v11.90766h2.86312v-6.31356h0.02937l0.57262,1.24803l3.08336,5.21235h0.04405l3.08336,-5.21235l0.57262,-1.24803h0.02937v6.31356h2.86312z" data-paper-data="{&quot;glyphName&quot;:&quot;M&quot;,&quot;glyphIndex&quot;:5,&quot;word&quot;:1}" id="element-id-36272"></path><path d="M307.85172,265.7271h-7.60563l0.26429,-0.26429v-1.64446l-0.26429,-0.26429h6.90086v-2.52542h-6.90086l0.26429,-0.26429v-1.64446l-0.26429,-0.26429h7.60563v-2.51074h-10.20447v11.89298h10.20447z" data-paper-data="{&quot;glyphName&quot;:&quot;E&quot;,&quot;glyphIndex&quot;:6,&quot;lastGlyphOfWord&quot;:true,&quot;word&quot;:1}" id="element-id-75968"></path><path d="M326.636,256.34486h-2.86312v11.89298h2.86312z" data-paper-data="{&quot;glyphName&quot;:&quot;I&quot;,&quot;glyphIndex&quot;:7,&quot;firstGlyphOfWord&quot;:true,&quot;word&quot;:2}" id="element-id-60706"></path><path d="M345.49188,256.34486h-2.86312v7.28261h-0.02937l-0.92501,-1.38017l-5.05085,-5.90244h-2.36391v11.89298h2.86312v-7.35603h0.02937l1.01311,1.49763l4.96275,5.85839h2.36391z" data-paper-data="{&quot;glyphName&quot;:&quot;N&quot;,&quot;glyphIndex&quot;:8,&quot;lastGlyphOfWord&quot;:true,&quot;word&quot;:2}" id="element-id-96681"></path><path d="M375.6209,256.34486h-2.3786l-3.75877,6.32824l-0.4258,1.04247h-0.02937l-0.45516,-1.04247l-3.74409,-6.32824h-2.34923v11.90766h2.86312v-6.31356h0.02937l0.57262,1.24803l3.08336,5.21235h0.04405l3.08336,-5.21235l0.57262,-1.24803h0.02937v6.31356h2.86312z" data-paper-data="{&quot;glyphName&quot;:&quot;M&quot;,&quot;glyphIndex&quot;:9,&quot;firstGlyphOfWord&quot;:true,&quot;word&quot;:3}" id="element-id-7701"></path><path d="M393.18633,256.34486l-2.70161,3.53853l-0.6754,1.11588h-0.02937l-0.6754,-1.11588l-2.68693,-3.53853h-3.58258l5.52069,7.01833v4.87465h2.87781v-4.87465l5.52069,-7.01833z" data-paper-data="{&quot;glyphName&quot;:&quot;Y&quot;,&quot;glyphIndex&quot;:10,&quot;lastGlyphOfWord&quot;:true,&quot;word&quot;:3}" id="element-id-15053"></path><path d="M420.65883,264.49375c0,0.66072 -0.26429,1.23335 -1.82065,1.23335h-3.71472l0.26429,-0.26429v-1.9528l-0.27897,-0.26429h3.71472c1.48295,0 1.83534,0.63136 1.83534,1.24803zM420.14493,259.92744c0,0.54326 -0.22024,1.1012 -1.58573,1.1012h-3.43575l0.26429,-0.26429v-1.64446l-0.26429,-0.26429h3.43575c1.29208,0 1.58573,0.49921 1.58573,1.07184zM423.566,264.56717c0,-1.30676 -0.70477,-2.15836 -1.6151,-2.51074c0.71945,-0.45516 1.1012,-1.32144 1.1012,-2.2024c0,-1.89407 -1.49763,-3.50916 -4.34608,-3.50916h-6.18141v11.89298h6.31356c2.90717,0 4.72783,-1.35081 4.72783,-3.67067z" data-paper-data="{&quot;glyphName&quot;:&quot;B&quot;,&quot;glyphIndex&quot;:11,&quot;firstGlyphOfWord&quot;:true,&quot;word&quot;:4}" id="element-id-2383"></path><path d="M440.32968,265.7271h-6.90086l0.24961,-0.26429v-9.11795h-2.86312v11.89298h9.51438z" data-paper-data="{&quot;glyphName&quot;:&quot;L&quot;,&quot;glyphIndex&quot;:12,&quot;word&quot;:4}" id="element-id-84876"></path><path d="M456.30553,262.35008c0,2.09962 -0.96906,3.50916 -3.3917,3.50916c-2.40796,0 -3.40638,-1.40954 -3.40638,-3.50916c0,-2.14367 0.99842,-3.62662 3.40638,-3.62662c2.40796,0 3.3917,1.527 3.3917,3.62662zM459.2127,262.35008c0,-3.50916 -2.15836,-6.15205 -6.31356,-6.15205c-4.12584,0 -6.29887,2.65757 -6.29887,6.15205c0,3.53853 2.17304,6.03459 6.29887,6.03459c4.0671,0 6.31356,-2.49606 6.31356,-6.03459z" data-paper-data="{&quot;glyphName&quot;:&quot;O&quot;,&quot;glyphIndex&quot;:13,&quot;word&quot;:4}" id="element-id-50376"></path><path d="M478.6919,261.02864h-6.59253v2.51074h4.16988l-0.26429,0.26429c-0.22024,1.23335 -1.42422,2.07026 -3.11273,2.07026c-2.52542,0 -3.62662,-1.23335 -3.62662,-3.4798c0,-2.36391 1.17462,-3.68536 3.71472,-3.68536c1.29208,0 2.31986,0.4258 3.03932,1.27739l1.93812,-1.93812c-1.05715,-1.14525 -2.84844,-1.85002 -4.99211,-1.85002c-4.1552,0 -6.60721,2.49606 -6.60721,6.19609c0,3.62662 2.39328,5.99054 6.51911,5.99054c1.21866,0 2.56947,-0.4258 3.30361,-1.05715v0.92501h2.51074z" data-paper-data="{&quot;glyphName&quot;:&quot;G&quot;,&quot;glyphIndex&quot;:14,&quot;lastGlyphOfWord&quot;:true,&quot;word&quot;:4}" id="element-id-54871"></path></g><g data-paper-data="{&quot;isPrimaryText&quot;:true}" fill-rule="nonzero" id="element-id-15816"><path d="M185.98903,237.6493v-15.23546h47.51398c5.99089,0 10.89723,-4.49317 10.89723,-10.48406c0,-5.99089 -5.00963,-10.32913 -10.89723,-10.32913h-53.40158v5.68102h53.45323c2.78886,0 5.16456,2.06583 5.16456,4.7514c0,2.63393 -2.3757,4.80304 -5.16456,4.80304h-53.45323v20.81319z" data-paper-data="{&quot;glyphName&quot;:&quot;P&quot;,&quot;glyphIndex&quot;:0,&quot;firstGlyphOfWord&quot;:true,&quot;word&quot;:1}" id="element-id-69622"></path><path d="M260.36734,237.75259v-36.15194h-5.93925v36.15194z" data-paper-data="{&quot;glyphName&quot;:&quot;I&quot;,&quot;glyphIndex&quot;:1,&quot;word&quot;:1}" id="element-id-71308"></path><path d="M277.83217,237.6493v-15.23546h47.51398c5.99089,0 10.89723,-4.49317 10.89723,-10.48406c0,-5.99089 -5.00963,-10.32913 -10.89723,-10.32913h-53.40158v5.68102h53.45323c2.78886,0 5.16456,2.06583 5.16456,4.7514c0,2.63393 -2.3757,4.80304 -5.16456,4.80304h-53.45323v20.81319z" data-paper-data="{&quot;glyphName&quot;:&quot;P&quot;,&quot;glyphIndex&quot;:2,&quot;word&quot;:1}" id="element-id-79851"></path><path d="M352.15884,237.6493v-15.23546h47.51398c5.99089,0 10.89723,-4.49317 10.89723,-10.48406c0,-5.99089 -5.00963,-10.32913 -10.89723,-10.32913h-53.40158v5.68102h53.45323c2.78886,0 5.16456,2.06583 5.16456,4.7514c0,2.63393 -2.3757,4.80304 -5.16456,4.80304h-53.45323v20.81319z" data-paper-data="{&quot;glyphName&quot;:&quot;P&quot;,&quot;glyphIndex&quot;:3,&quot;word&quot;:1}" id="element-id-92582"></path><path d="M420.5979,211.25838v16.93977c0,5.37115 4.59646,9.65773 10.17419,9.65773h44.05372c5.57773,0 10.17419,-4.28659 10.17419,-9.65773v-16.93977c0,-5.37115 -4.59646,-9.65773 -10.17419,-9.65773h-44.05372c-5.57773,0 -10.17419,4.28659 -10.17419,9.65773zM426.38221,228.14651v-16.93977c0,-2.11747 1.91089,-3.92507 4.33823,-3.92507h44.05372c2.42734,0 4.33823,1.8076 4.33823,3.92507v16.93977c0,2.06583 -1.91089,3.97671 -4.33823,3.97671h-44.05372c-2.42734,0 -4.33823,-1.91089 -4.33823,-3.97671z" data-paper-data="{&quot;glyphName&quot;:&quot;O&quot;,&quot;glyphIndex&quot;:4,&quot;lastGlyphOfWord&quot;:true,&quot;word&quot;:1}" id="element-id-14941"></path></g><g data-paper-data="{&quot;fillRule&quot;:&quot;evenodd&quot;,&quot;fillRuleOriginal&quot;:&quot;evenodd&quot;,&quot;isIcon&quot;:true,&quot;iconStyle&quot;:&quot;standalone&quot;,&quot;selectedEffects&quot;:{&quot;container&quot;:&quot;&quot;,&quot;transformation&quot;:&quot;&quot;,&quot;pattern&quot;:&quot;&quot;},&quot;bounds&quot;:{&quot;x&quot;:65,&quot;y&quot;:192.7427995293154,&quot;width&quot;:84.61156867978468,&quot;height&quot;:84.51440094136927},&quot;iconType&quot;:&quot;icon&quot;,&quot;rawIconId&quot;:&quot;4033925&quot;,&quot;isDetailed&quot;:false,&quot;suitableAsStandaloneIcon&quot;:true}" fill-rule="evenodd" id="element-id-34124"><path d="M137.28297,205.08541c-7.36932,-7.37325 -17.20014,-11.76813 -27.60881,-12.34261h-0.05636c-0.98238,0.01469 -1.78697,0.79744 -1.82216,1.78591c-0.06045,1.04296 0.73037,1.94 1.77268,2.0108c20.76945,1.20282 36.84368,18.65864 36.33371,39.45666c-0.50984,20.79802 -17.42027,37.44507 -38.22386,37.62855c-20.80345,0.18348 -38.0048,-16.16273 -38.88147,-36.94859c-0.06383,-1.04072 -0.94212,-1.84292 -1.98434,-1.81237c-0.50415,0.01971 -0.97992,0.23852 -1.3229,0.60853c-0.2725,0.30109 -0.4425,0.67838 -0.48947,1.07763v0.52334c0.95469,18.77849 14.1899,34.69212 32.50644,39.0373c18.40702,4.36674 37.47682,-4.00943 46.71433,-20.51863c9.23738,-16.5092 6.3999,-37.14332 -6.95102,-50.54622zM107.33264,270.39672c19.14507,0.11787 34.90392,-15.02795 35.54539,-34.1627c0.64161,-19.13461 -14.06753,-35.3019 -33.17741,-36.46666c-1.04482,-0.04019 -1.92428,0.7742 -1.9645,1.81898c-0.04022,1.04478 0.77416,1.92431 1.81898,1.9645c13.97069,0.99635 25.61402,11.08004 28.59543,24.76525c2.98154,13.68521 -3.41188,27.69838 -15.7021,34.41603c-12.29009,6.71753 -27.53711,4.53277 -37.44626,-5.36593c-0.73804,-0.71238 -1.90775,-0.71238 -2.64579,0c-0.69889,0.74346 -0.69889,1.90232 0,2.64579c6.60852,6.65218 15.59944,10.39041 24.97626,10.38472zM131.90025,235.87949c0.44145,-12.99466 -9.30855,-24.08767 -22.25255,-25.3173l-0.19844,-0.05292c-0.99283,-0.05688 -1.75747,-0.89798 -1.71976,-1.89174c0.068,-1.00924 0.89375,-1.80059 1.90497,-1.8256h0.34395c14.82171,1.55083 25.91842,14.30287 25.40646,29.19669c-0.51183,14.89394 -12.45783,26.85397 -27.35112,27.38353c-1.03239,0.01482 -1.88327,-0.80657 -1.90497,-1.83883c-0.0004,-1.03172 0.82072,-1.87626 1.85205,-1.90497c12.99757,-0.34845 23.47794,-10.75408 23.91939,-23.74887zM120.0192,247.73554c5.13839,-5.13257 6.67797,-12.8555 3.90056,-19.56601c-2.77742,-6.71065 -9.32442,-11.08665 -16.58712,-11.08665c-7.26269,0 -13.8097,4.376 -16.58712,11.08665c-2.77742,6.71052 -1.23783,14.43344 3.90056,19.56601c7.01491,6.98647 18.35821,6.98647 25.37312,0z" data-paper-data="{&quot;isPathIcon&quot;:true}" id="element-id-14847"></path></g></g></g><g class="watermark-group" style="opacity:0.040000010281801224"><path class="watermark-path" d="M129.52,370.3a11.88,11.88,0,0,1,2.58,5.58,12,12,0,0,1,.11,3,11.81,11.81,0,0,1-.64,2.93,12.34,12.34,0,0,1-1.41,2.72,11.65,11.65,0,0,1-2.13,2.32,12,12,0,0,1-2.64,1.69,13,13,0,0,1-2.91.9,12.47,12.47,0,0,1-3,.12,12.17,12.17,0,0,1-2.93-.64,11.8,11.8,0,0,1-2.72-1.38,12.19,12.19,0,0,1-4-4.79,11.85,11.85,0,0,1-.89-2.92,12.14,12.14,0,0,1-.13-3,11.54,11.54,0,0,1,.64-2.92,11.67,11.67,0,0,1,3.5-5,11.44,11.44,0,0,1,2.67-1.69,11.64,11.64,0,0,1,2.92-.91,10.71,10.71,0,0,1,3-.12,11.68,11.68,0,0,1,5.66,2,11.7,11.7,0,0,1,2.34,2.12m-1.4,8.76a13,13,0,0,1-1.22,2.32,9.68,9.68,0,0,1-1.81,2,7.44,7.44,0,0,1-2.38,1.37,6.17,6.17,0,0,1-5.11-.46,8.73,8.73,0,0,1-3.85-4.58,6.69,6.69,0,0,1-.34-2.66,6.09,6.09,0,0,1,.77-2.47,7.15,7.15,0,0,1,1.75-2.11,9.58,9.58,0,0,1,1.09-.81,8.23,8.23,0,0,1,1.12-.63,8.14,8.14,0,0,1,1.19-.46,12.71,12.71,0,0,1,1.32-.37l2,2.38a12.83,12.83,0,0,0-1.56.17,7.86,7.86,0,0,0-1.23.32,4.5,4.5,0,0,0-1,.49,6.41,6.41,0,0,0-.93.67,4.49,4.49,0,0,0-1.15,1.39,3.87,3.87,0,0,0-.45,1.58,4.12,4.12,0,0,0,.26,1.63,6.11,6.11,0,0,0,2.36,2.82,4.43,4.43,0,0,0,1.57.53,3.91,3.91,0,0,0,1.62-.17,4.71,4.71,0,0,0,1.57-.89,10.5,10.5,0,0,0,.83-.79,5.71,5.71,0,0,0,.65-.93,10.13,10.13,0,0,0,.54-1.14,12.24,12.24,0,0,0,.44-1.49l2,2.33m-14.46,4.55a8.86,8.86,0,0,0,2.78,2.22,9,9,0,0,0,3.29.94,9.15,9.15,0,0,0,3.39-.37,8.68,8.68,0,0,0,3.11-1.69,8.8,8.8,0,0,0,2.22-2.78,9.15,9.15,0,0,0,1-3.29,8.95,8.95,0,0,0-4.83-8.76,9,9,0,0,0-6.73-.57,9,9,0,0,0-5.33,4.47,8.94,8.94,0,0,0-.57,6.71,8.76,8.76,0,0,0,1.7,3.12"></path><path class="watermark-path" d="M147,349c-.48.12-1.09.31-1.82.57a24.37,24.37,0,0,0-2.4,1A28.35,28.35,0,0,0,140,352a20.72,20.72,0,0,0-2.71,1.94c-.7.59-1.28,1.11-1.74,1.57a15.07,15.07,0,0,0-1.1,1.22,4.09,4.09,0,0,0-.59.92,2.32,2.32,0,0,0-.22.64,1.16,1.16,0,0,0,0,.47,1.83,1.83,0,0,0,.18.29,1.15,1.15,0,0,0,1,.37,5.54,5.54,0,0,0,1.51-.38q.87-.35,1.95-.9l2.26-1.18q1.2-.65,2.49-1.29c.87-.44,1.73-.83,2.59-1.17a18.94,18.94,0,0,1,2.6-.81,9.27,9.27,0,0,1,2.46-.29,6.25,6.25,0,0,1,2.24.49,5.12,5.12,0,0,1,1.89,1.47,6.35,6.35,0,0,1,1.41,2.61,6,6,0,0,1,.09,2.6,8.3,8.3,0,0,1-.9,2.52,17.79,17.79,0,0,1-1.62,2.37,23.92,23.92,0,0,1-2,2.15c-.72.67-1.41,1.29-2.09,1.87a33.79,33.79,0,0,1-5.33,3.7,32.29,32.29,0,0,1-4.91,2.28l-3.61-4.3a21.38,21.38,0,0,0,5.39-1.87,27.2,27.2,0,0,0,5.4-3.56,21.59,21.59,0,0,0,2.38-2.27,8.67,8.67,0,0,0,1.18-1.7,2.32,2.32,0,0,0,.27-1.19,1.34,1.34,0,0,0-.28-.74,1.21,1.21,0,0,0-1-.42,4.32,4.32,0,0,0-1.55.34,15.77,15.77,0,0,0-2,.88c-.72.37-1.48.77-2.27,1.21l-2.45,1.3c-.85.45-1.7.85-2.56,1.21a22.37,22.37,0,0,1-2.54.86,10,10,0,0,1-2.43.32,5.76,5.76,0,0,1-2.2-.45,5,5,0,0,1-1.89-1.45,6.12,6.12,0,0,1-1.31-2.41,6,6,0,0,1-.1-2.41,8.28,8.28,0,0,1,.81-2.38,14.06,14.06,0,0,1,1.49-2.24,22.37,22.37,0,0,1,1.85-2.05q1-1,2-1.77c.7-.59,1.44-1.15,2.23-1.7s1.62-1.06,2.44-1.53,1.63-.91,2.43-1.3,1.58-.75,2.3-1L147,349"></path><path class="watermark-path" d="M186.76,337.57l-10.6-12.63,3.92,18.24-4.66,3.91-17.27-7,10.6,12.63-4.86,4.07-15.09-18,6.59-5.54,18.69,7.52-4.15-19.71,6.57-5.52,15.09,18-4.83,4.05"></path><path class="watermark-path" d="M208.84,313.24l-10,8.42,1.16,4.82L194.56,331l-5.68-25.89,5.42-4.55,24.51,10.09-5.42,4.55-4.55-2m-11.23,3.45,6.57-5.52-8.83-3.87,2.26,9.39"></path><path class="watermark-path" d="M227.49,281.38c-.48.12-1.09.31-1.82.57a24.37,24.37,0,0,0-2.4,1,26.11,26.11,0,0,0-2.7,1.47,20.72,20.72,0,0,0-2.71,1.94c-.7.59-1.28,1.11-1.74,1.57a13.39,13.39,0,0,0-1.1,1.22,4.29,4.29,0,0,0-.59.91,2.48,2.48,0,0,0-.22.65,1.16,1.16,0,0,0,0,.47,1.83,1.83,0,0,0,.18.29,1.15,1.15,0,0,0,1,.37,5.54,5.54,0,0,0,1.51-.38q.87-.34,2-.9l2.26-1.18q1.2-.64,2.49-1.29c.87-.44,1.73-.83,2.59-1.17a18.94,18.94,0,0,1,2.6-.81,9.27,9.27,0,0,1,2.46-.29,6.08,6.08,0,0,1,2.24.49,5.09,5.09,0,0,1,1.89,1.46,6.47,6.47,0,0,1,1.41,2.61,6.07,6.07,0,0,1,.09,2.61,8.3,8.3,0,0,1-.9,2.52,16.32,16.32,0,0,1-1.63,2.36,21.41,21.41,0,0,1-2,2.16c-.72.67-1.41,1.29-2.1,1.86a33.36,33.36,0,0,1-5.32,3.71,31.92,31.92,0,0,1-4.92,2.28l-3.6-4.3a21.38,21.38,0,0,0,5.39-1.87,27.2,27.2,0,0,0,5.4-3.56,21.59,21.59,0,0,0,2.38-2.27,8.67,8.67,0,0,0,1.18-1.7A2.32,2.32,0,0,0,231,293a1.34,1.34,0,0,0-.28-.74,1.21,1.21,0,0,0-1-.42,4.32,4.32,0,0,0-1.55.34,16.54,16.54,0,0,0-2,.88c-.71.37-1.47.77-2.26,1.21l-2.46,1.3c-.84.44-1.7.85-2.55,1.21a24.53,24.53,0,0,1-2.54.86A10,10,0,0,1,214,298a5.76,5.76,0,0,1-2.2-.45,5,5,0,0,1-1.89-1.45,6.12,6.12,0,0,1-1.31-2.41,5.78,5.78,0,0,1-.1-2.41,8,8,0,0,1,.81-2.38,14.61,14.61,0,0,1,1.49-2.25,22.26,22.26,0,0,1,1.85-2q1-1,2-1.77c.7-.59,1.44-1.15,2.23-1.7s1.62-1.06,2.44-1.53,1.63-.91,2.43-1.31,1.58-.74,2.3-1l3.5,4.16"></path><path class="watermark-path" d="M261.64,274.74l-6.29-7.5L243,277.61l6.3,7.5-4.86,4.07-15.09-18,4.85-4.08,5.49,6.55L252,263.3l-5.49-6.55,4.86-4.07,15.09,18-4.86,4.08"></path><path class="watermark-path" d="M272.18,265.9l-15.09-18,4.86-4.08,15.09,18-4.86,4.08"></path><path class="watermark-path" d="M299.65,242.85l-22.51-2.18L287.51,253l-4.85,4.08-15.1-18,5.28-4.43,22.56,2.22L285,224.5l4.83-4.06,15.09,18-5.26,4.42"></path><path class="watermark-path" d="M306.68,205.52a31.88,31.88,0,0,1,5.29-3.66,34.48,34.48,0,0,1,5.14-2.35l3.69,4.39a20.77,20.77,0,0,0-2.37.61,20.47,20.47,0,0,0-2.61,1,25.12,25.12,0,0,0-2.76,1.49,23.9,23.9,0,0,0-2.8,2,20.42,20.42,0,0,0-2.8,2.77,12.77,12.77,0,0,0-1.64,2.52,7,7,0,0,0-.68,2.24,6,6,0,0,0,.66,3.64,8.16,8.16,0,0,0,.94,1.38,9.12,9.12,0,0,0,1.08,1.07,6.39,6.39,0,0,0,1.47.91,6.73,6.73,0,0,0,1.88.48,6.54,6.54,0,0,0,2.28-.18,11.67,11.67,0,0,0,2.74-1.07,19.38,19.38,0,0,0,3.18-2.22c.57-.48,1.06-.92,1.46-1.31a14.57,14.57,0,0,0,1-1.13,11.46,11.46,0,0,0,.81-1.05l.74-1.09-1.82-2.17-5.45,4.57-3.31-3.94,10.31-8.65,7.71,9.19a29,29,0,0,1-1.67,2.43q-1,1.26-2.1,2.52c-.74.84-1.5,1.65-2.3,2.44s-1.58,1.5-2.33,2.14a31,31,0,0,1-3.59,2.61,22.55,22.55,0,0,1-3.64,1.83,15.64,15.64,0,0,1-3.63.89,10.72,10.72,0,0,1-3.49-.15,10.45,10.45,0,0,1-3.28-1.33,12.54,12.54,0,0,1-3-2.67,12,12,0,0,1-2.08-3.44,10.45,10.45,0,0,1-.71-3.5,11.14,11.14,0,0,1,.51-3.51,15.72,15.72,0,0,1,1.56-3.43,21.62,21.62,0,0,1,2.42-3.28,30.3,30.3,0,0,1,3.15-3"></path><path class="watermark-path" d="M336.91,211.59l-15.1-18,4.86-4.08,11.79,14,13.13-11,3.31,3.94-18,15.1"></path><path class="watermark-path" d="M374.54,164.71a12.28,12.28,0,0,1,2.59,4.81,10.44,10.44,0,0,1,0,5,14.62,14.62,0,0,1-2.33,5,25.55,25.55,0,0,1-4.56,4.85,26.07,26.07,0,0,1-5.6,3.67,14.79,14.79,0,0,1-5.38,1.43,10.43,10.43,0,0,1-4.94-.89,13.24,13.24,0,0,1-6.87-8.18,10.48,10.48,0,0,1,0-5,14.51,14.51,0,0,1,2.36-5,25.23,25.23,0,0,1,4.57-4.89,25,25,0,0,1,5.59-3.64,14.45,14.45,0,0,1,5.35-1.43,10.31,10.31,0,0,1,4.93.92,12.22,12.22,0,0,1,4.28,3.38m-4.91,4.11a8.36,8.36,0,0,0-2-1.72,5.5,5.5,0,0,0-2.65-.85,7.72,7.72,0,0,0-3.32.57,14.49,14.49,0,0,0-4,2.52,16.72,16.72,0,0,0-2.38,2.4,10.15,10.15,0,0,0-1.39,2.24,6.71,6.71,0,0,0-.56,2.1,5.69,5.69,0,0,0,.1,1.9,6.21,6.21,0,0,0,.61,1.69,9.85,9.85,0,0,0,1,1.44,10.48,10.48,0,0,0,1.26,1.23,6.67,6.67,0,0,0,1.57.92,6.1,6.1,0,0,0,1.85.41,6.8,6.8,0,0,0,2.15-.2,11.06,11.06,0,0,0,2.45-1,17.67,17.67,0,0,0,2.77-1.94,14.39,14.39,0,0,0,3.18-3.52,7.74,7.74,0,0,0,1.14-3.17,5.54,5.54,0,0,0-.37-2.74,8.52,8.52,0,0,0-1.36-2.3"></path><path class="watermark-path" d="M382.66,141.76A32.3,32.3,0,0,1,388,138.1a34.12,34.12,0,0,1,5.15-2.35l3.69,4.4a19.62,19.62,0,0,0-2.37.6,22.08,22.08,0,0,0-2.61,1,26,26,0,0,0-2.77,1.49,23.9,23.9,0,0,0-2.8,2,21,21,0,0,0-2.8,2.78,13.19,13.19,0,0,0-1.64,2.51,7.29,7.29,0,0,0-.68,2.24,6.36,6.36,0,0,0,.06,2,5.8,5.8,0,0,0,.61,1.68,8.12,8.12,0,0,0,.93,1.38,9.16,9.16,0,0,0,1.08,1.08,6.56,6.56,0,0,0,1.48.9,6,6,0,0,0,1.87.48,6.76,6.76,0,0,0,2.28-.17,12,12,0,0,0,2.74-1.08,18.57,18.57,0,0,0,3.18-2.22c.58-.48,1.06-.92,1.46-1.31s.75-.77,1.05-1.12.57-.72.81-1.06l.73-1.09-1.82-2.17-5.45,4.57-3.3-3.94,10.3-8.65,7.71,9.19a29,29,0,0,1-1.67,2.43q-1,1.26-2.1,2.52c-.73.84-1.5,1.66-2.3,2.44s-1.57,1.5-2.33,2.14a31,31,0,0,1-3.59,2.61,22.15,22.15,0,0,1-3.64,1.83,15.56,15.56,0,0,1-3.62.89,11,11,0,0,1-3.49-.14,10.84,10.84,0,0,1-3.28-1.33,12.82,12.82,0,0,1-3-2.68,12.12,12.12,0,0,1-2.08-3.43A10.71,10.71,0,0,1,375,155a11.18,11.18,0,0,1,.51-3.51,15.51,15.51,0,0,1,1.57-3.43,21.44,21.44,0,0,1,2.42-3.28,30.19,30.19,0,0,1,3.14-3"></path><path class="watermark-path" d="M428.63,119.31a12.26,12.26,0,0,1,2.59,4.82,10.44,10.44,0,0,1,0,5,14.53,14.53,0,0,1-2.34,5,25.29,25.29,0,0,1-4.56,4.86,26,26,0,0,1-5.59,3.67,14.84,14.84,0,0,1-5.38,1.43,10.61,10.61,0,0,1-4.95-.89,12.15,12.15,0,0,1-4.3-3.37,12,12,0,0,1-2.56-4.81,10.48,10.48,0,0,1,0-5,14.39,14.39,0,0,1,2.35-5,27.89,27.89,0,0,1,10.16-8.53,14.49,14.49,0,0,1,5.36-1.43,10.27,10.27,0,0,1,4.92.92,12.21,12.21,0,0,1,4.28,3.37m-4.91,4.12a8.17,8.17,0,0,0-2-1.72,5.58,5.58,0,0,0-2.65-.86,7.86,7.86,0,0,0-3.31.58,14.49,14.49,0,0,0-4,2.52,16.21,16.21,0,0,0-2.38,2.4,9.85,9.85,0,0,0-1.4,2.24,7,7,0,0,0-.56,2.1,6,6,0,0,0,.1,1.9,6.23,6.23,0,0,0,.62,1.69,8.49,8.49,0,0,0,1,1.44,9.18,9.18,0,0,0,1.26,1.23,6.67,6.67,0,0,0,1.57.92,6,6,0,0,0,1.84.41,6.86,6.86,0,0,0,2.16-.2,11.26,11.26,0,0,0,2.45-1,17.62,17.62,0,0,0,2.76-1.94,14.67,14.67,0,0,0,3.19-3.52,7.71,7.71,0,0,0,1.13-3.17,5.53,5.53,0,0,0-.36-2.74,8.55,8.55,0,0,0-1.37-2.3"></path></g><rect data-element-id="element-id-15816" stroke-width="2" fill="transparent" class="invisible-element-box grouping-element" x="180" y="202" width="305" height="36" data-element-name="isPrimaryText"></rect><rect data-element-id="element-id-34124" stroke-width="2" fill="transparent" class="invisible-element-box grouping-element" x="65" y="193" width="85" height="85" data-element-name="isIcon"></rect><rect data-element-id="element-id-14847" stroke-width="2" fill="transparent" class="invisible-element-box individual-element" x="65" y="193" width="85" height="85"></rect><rect data-element-id="element-id-43359" stroke-width="2" fill="transparent" class="invisible-element-box grouping-element" x="180" y="256" width="299" height="12" data-element-name="isSecondaryText"></rect><rect data-element-id="element-id-69622" stroke-width="2" fill="transparent" class="invisible-element-box individual-element" x="180" y="202" width="64" height="36"></rect><rect data-element-id="element-id-79851" stroke-width="2" fill="transparent" class="invisible-element-box individual-element" x="272" y="202" width="64" height="36"></rect><rect data-element-id="element-id-92582" stroke-width="2" fill="transparent" class="invisible-element-box individual-element" x="346" y="202" width="64" height="36"></rect><rect data-element-id="element-id-14941" stroke-width="2" fill="transparent" class="invisible-element-box individual-element" x="421" y="202" width="64" height="36"></rect><rect data-element-id="element-id-71308" stroke-width="2" fill="transparent" class="invisible-element-box individual-element" x="254" y="202" width="6" height="36"></rect><rect data-element-id="element-id-69124" stroke-width="2" fill="transparent" class="invisible-element-box individual-element" x="180" y="256" width="16" height="12"></rect><rect data-element-id="element-id-15053" stroke-width="2" fill="transparent" class="invisible-element-box individual-element" x="383" y="256" width="14" height="12"></rect><rect data-element-id="element-id-79437" stroke-width="2" fill="transparent" class="invisible-element-box individual-element" x="256" y="256" width="13" height="12"></rect><rect data-element-id="element-id-36272" stroke-width="2" fill="transparent" class="invisible-element-box individual-element" x="276" y="256" width="13" height="12"></rect><rect data-element-id="element-id-7701" stroke-width="2" fill="transparent" class="invisible-element-box individual-element" x="362" y="256" width="13" height="12"></rect><rect data-element-id="element-id-50376" stroke-width="2" fill="transparent" class="invisible-element-box individual-element" x="447" y="256" width="13" height="12"></rect><rect data-element-id="element-id-36978" stroke-width="2" fill="transparent" class="invisible-element-box individual-element" x="237" y="256" width="12" height="12"></rect><rect data-element-id="element-id-54871" stroke-width="2" fill="transparent" class="invisible-element-box individual-element" x="466" y="256" width="12" height="12"></rect><rect data-element-id="element-id-96681" stroke-width="2" fill="transparent" class="invisible-element-box individual-element" x="334" y="256" width="11" height="12"></rect><rect data-element-id="element-id-2383" stroke-width="2" fill="transparent" class="invisible-element-box individual-element" x="413" y="256" width="11" height="12"></rect><rect data-element-id="element-id-76995" stroke-width="2" fill="transparent" class="invisible-element-box individual-element" x="204" y="256" width="10" height="12"></rect><rect data-element-id="element-id-83524" stroke-width="2" fill="transparent" class="invisible-element-box individual-element" x="222" y="256" width="10" height="12"></rect><rect data-element-id="element-id-75968" stroke-width="2" fill="transparent" class="invisible-element-box individual-element" x="298" y="256" width="10" height="12"></rect><rect data-element-id="element-id-84876" stroke-width="2" fill="transparent" class="invisible-element-box individual-element" x="431" y="256" width="10" height="12"></rect><rect data-element-id="element-id-60706" stroke-width="2" fill="transparent" class="invisible-element-box individual-element" x="324" y="256" width="3" height="12"></rect></svg>
